# xmcd
#
# Track frame offsets: 
#        150
#        12469
#        20683
#        24498
#        39054
#        45357
#        65556
#
# Disc length: 1040 seconds
#
# Revision: 0
# Processed by: cddbd v1.5.2PL0 Copyright (c) Steve Scherf et al.
# Submitted via: ExactAudioCopy v0.95b3
#
DISCID=4c040e07
DTITLE=Roses and Whiskey - Little Lovely Layla
DYEAR=2014
DGENRE=Americana
TTITLE0=Once Upon a Time
TTITLE1=Can You See the People
TTITLE2=Gimme yo' Money
TTITLE3=Beer Run
TTITLE4=Handsome Stranger
TTITLE5=Little Lovely Layla - Dream Track
TTITLE6=The Big Purple House
EXTD=
EXTT0=
EXTT1=
EXTT2=
EXTT3=
EXTT4=
EXTT5=
EXTT6=
PLAYORDER=
